# xmcd
#
# Track frame offsets: 
#        150
#        11110
#        22075
#        31615
#        42865
#        54405
#        64275
#        74390
#        84720
#        98495
#        108870
#        119320
#        131595
#        140605
#        152555
#        164095
#        176960
#        190055
#        201625
#        210210
#
# Disc length: 2972 seconds
#
# Revision: 0
# Processed by: cddbd v1.5.2PL0 Copyright (c) Steve Scherf et al.
# Submitted via: ExactAudioCopy v0.95b4
#
DISCID=1c0b9a14
DTITLE=Marty Robbins - A Lonely Country Road
DYEAR=1900
DGENRE=Country
TTITLE0=A Lonely Country Road
TTITLE1=I Can't Quit
TTITLE2=Long Tall Sally
TTITLE3=Long Gone Lonesome Blues
TTITLE4=Maybelline
TTITLE5=Knee Deep In The Blues
TTITLE6=All The World Is Lonely Now
TTITLE7=Bouquet Of Roses
TTITLE8=The Little Rosewood Casket
TTITLE9=It's Too Late Now To Worry Any More
TTITLE10=I'll Step Aside
TTITLE11=Tomorrow You'll Be Gone
TTITLE12=It's A Long, Long Ride
TTITLE13=I'll Go On Alone
TTITLE14=Love Me Or Leave Me Alone
TTITLE15=You're Breaking My Heart
TTITLE16=Sing Me Something Sentimental
TTITLE17=Pretty Words
TTITLE18=Lorelei
TTITLE19=Don't Make Me Ashamed
EXTD=
EXTT0=
EXTT1=
EXTT2=
EXTT3=
EXTT4=
EXTT5=
EXTT6=
EXTT7=
EXTT8=
EXTT9=
EXTT10=
EXTT11=
EXTT12=
EXTT13=
EXTT14=
EXTT15=
EXTT16=
EXTT17=
EXTT18=
EXTT19=
PLAYORDER=
